<svg width="14" height="13" viewBox="0 0 14 13" fill="none" xmlns="http://www.w3.org/2000/svg">
<path d="M7.71961 0.00077909C8.23039 -0.00099402 8.74118 0.00364997 9.25183 0.0147096L9.38762 0.019142C9.54441 0.0242076 9.69911 0.0305397 9.886 0.0381381C10.6308 0.0697983 11.1389 0.176177 11.5848 0.332578C12.0468 0.493411 12.436 0.711233 12.8251 1.06329C13.181 1.37965 13.4564 1.76232 13.6322 2.1847C13.8051 2.58805 13.9227 3.04839 13.9577 3.72211C13.9661 3.89055 13.9731 4.03112 13.9787 4.17296L13.9829 4.2958C13.9953 4.75752 14.0007 5.21938 13.999 5.68125L13.9997 6.15362V6.98311C14.0014 7.44518 13.996 7.90726 13.9836 8.36919L13.9794 8.49203C13.9738 8.63387 13.9668 8.77381 13.9584 8.94287C13.9234 9.6166 13.8044 10.0763 13.6322 10.4797C13.457 10.9025 13.1815 11.2855 12.8251 11.6017C12.4751 11.9236 12.0519 12.1727 11.5848 12.3318C11.1389 12.4882 10.6308 12.5946 9.886 12.6262C9.69911 12.6338 9.54441 12.6401 9.38762 12.6452L9.25183 12.649C8.74119 12.6603 8.2304 12.6651 7.71961 12.6636L7.19743 12.6642H6.28118C5.77039 12.6658 5.2596 12.6609 4.74896 12.6496L4.61317 12.6458C4.447 12.6404 4.28087 12.6341 4.11479 12.6269C3.37003 12.5952 2.86186 12.4875 2.41528 12.3318C1.94818 12.1731 1.52509 11.9239 1.17564 11.6017C0.819393 11.2853 0.543733 10.9024 0.367885 10.4797C0.194994 10.0763 0.0773999 9.6166 0.0424017 8.94287C0.0346061 8.79263 0.0276064 8.64234 0.0214028 8.49203L0.017903 8.36919C0.00499822 7.90726 -0.00083544 7.44519 0.00040388 6.98311V5.68125C-0.0015497 5.21939 0.00358392 4.75753 0.0158031 4.2958L0.0207029 4.17296C0.0263026 4.03112 0.0333022 3.89055 0.0417018 3.72211C0.0767 3.04775 0.194294 2.58868 0.367185 2.1847C0.543137 1.76211 0.819337 1.37954 1.17634 1.06393C1.52555 0.74147 1.94838 0.491874 2.41528 0.332578C2.86186 0.176177 3.36933 0.0697983 4.11479 0.0381381L4.61317 0.019142L4.74896 0.0159761C5.25936 0.00430792 5.76992 -0.000969339 6.28048 0.000145933L7.71961 0.00077909ZM7.00004 3.1668C6.53632 3.16086 6.07592 3.23836 5.6456 3.39479C5.21527 3.55122 4.82361 3.78346 4.49336 4.07801C4.16312 4.37256 3.90088 4.72355 3.72189 5.11058C3.5429 5.49761 3.45073 5.91296 3.45073 6.33249C3.45073 6.75203 3.5429 7.16738 3.72189 7.55441C3.90088 7.94144 4.16312 8.29243 4.49336 8.58698C4.82361 8.88153 5.21527 9.11377 5.6456 9.2702C6.07592 9.42663 6.53632 9.50413 7.00004 9.49819C7.92825 9.49819 8.81845 9.16463 9.47479 8.57089C10.1311 7.97715 10.4999 7.17186 10.4999 6.33218C10.4999 5.4925 10.1311 4.68721 9.47479 4.09347C8.81845 3.49972 7.92825 3.1668 7.00004 3.1668ZM7.00004 4.4332C7.27899 4.42855 7.55615 4.47423 7.81536 4.56757C8.07457 4.66091 8.31061 4.80004 8.50971 4.97683C8.70881 5.15363 8.86697 5.36454 8.97495 5.59725C9.08294 5.82995 9.13858 6.07979 9.13862 6.33217C9.13867 6.58455 9.08312 6.83441 8.97522 7.06715C8.86733 7.29989 8.70925 7.51085 8.51021 7.6877C8.31118 7.86455 8.07518 8.00375 7.81601 8.09717C7.55684 8.19059 7.27969 8.23635 7.00074 8.23179C6.44382 8.23179 5.9097 8.03165 5.5159 7.67541C5.12209 7.31916 4.90085 6.83599 4.90085 6.33218C4.90085 5.82837 5.12209 5.3452 5.5159 4.98895C5.9097 4.6327 6.44382 4.43257 7.00074 4.43257L7.00004 4.4332ZM10.6749 2.21699C10.449 2.22517 10.2355 2.31207 10.0789 2.45949C9.92234 2.60691 9.83489 2.80342 9.83489 3.00786C9.83489 3.2123 9.92234 3.40881 10.0789 3.55623C10.2355 3.70366 10.449 3.79056 10.6749 3.79873C10.9069 3.79873 11.1295 3.71534 11.2935 3.56691C11.4576 3.41847 11.5498 3.21715 11.5498 3.00723C11.5498 2.79731 11.4576 2.59599 11.2935 2.44755C11.1295 2.29911 10.9069 2.21572 10.6749 2.21572V2.21699Z" fill="black"/>
</svg>
