<svg width="14" height="13" viewBox="0 0 14 13" fill="none" xmlns="http://www.w3.org/2000/svg">
<path d="M14 1.48994C13.4847 1.75068 12.9293 1.92202 12.3537 2.00397C12.9426 1.60914 13.3977 0.983361 13.6119 0.230941C13.0564 0.603426 12.4407 0.864166 11.7916 1.01316C11.2629 0.372485 10.5201 0 9.67686 0C8.10421 0 6.81931 1.43034 6.81931 3.19592C6.81931 3.44921 6.84608 3.69505 6.89293 3.92599C4.51052 3.7919 2.3891 2.518 0.977056 0.588527C0.729446 1.05786 0.58891 1.60914 0.58891 2.19021C0.58891 3.30022 1.09082 4.28358 1.86711 4.84231C1.39197 4.84231 0.950287 4.69331 0.562142 4.46982V4.49217C0.562142 6.04171 1.55258 7.33796 2.86424 7.6285C2.44313 7.75679 2.00102 7.77464 1.57266 7.68064C1.75442 8.31572 2.1104 8.87141 2.59055 9.26961C3.0707 9.66782 3.65087 9.88851 4.24952 9.90066C3.23474 10.7949 1.97686 11.2783 0.6826 11.2714C0.455067 11.2714 0.227533 11.2565 0 11.2267C1.27151 12.1356 2.78394 12.6645 4.40344 12.6645C9.67686 12.6645 12.5746 7.79239 12.5746 3.56841C12.5746 3.42686 12.5746 3.29277 12.5679 3.15122C13.13 2.70424 13.6119 2.13806 14 1.48994Z" fill="black"/>
</svg>
